<svg xmlns="http://www.w3.org/2000/svg" version="1.1" xmlns:xlink="http://www.w3.org/1999/xlink" xmlns:svgjs="http://svgjs.dev/svgjs" width="1500" height="1500" viewBox="0 0 1500 1500"><rect width="1500" height="1500" fill="#c8c8c8"></rect><g transform="matrix(0.6666666666666666,0,0,0.6666666666666666,249.39393939393938,612.6261619150914)"><svg viewBox="0 0 396 109" data-background-color="#c8c8c8" preserveAspectRatio="xMidYMid meet" height="412" width="1500" xmlns="http://www.w3.org/2000/svg" xmlns:xlink="http://www.w3.org/1999/xlink"><g id="tight-bounds" transform="matrix(1,0,0,1,0.2400000000000091,0.016074094375142067)"><svg viewBox="0 0 395.52 108.96785181124972" height="108.96785181124972" width="395.52"><g><svg viewBox="0 0 590.1608748778026 162.59244224939795" height="108.96785181124972" width="395.52"><g transform="matrix(1,0,0,1,0,47.35753969540859)"><svg viewBox="0 0 395.52 67.87736285858077" height="67.87736285858077" width="395.52"><g id="textblocktransform"><svg viewBox="0 0 395.52 67.87736285858077" height="67.87736285858077" width="395.52" id="textblock"><g><svg viewBox="0 0 395.52 67.87736285858077" height="67.87736285858077" width="395.52"><g transform="matrix(1,0,0,1,0,0)"><svg width="395.52" viewBox="0.5 -33.75 196.19 34.1" height="67.87736285858077" data-palette-color="#000000"><g class="wordmark-text-0" data-fill-palette-color="primary" id="text-0"><path d="M5.95-31.75L10.05-31.75 10.05-5.25Q10.05-2.2 8.6-0.93 7.15 0.35 4.15 0.35L4.15 0.35 0.5 0.35 0.5-3.35 5.5-3.35Q5.95-3.35 5.95-3.85L5.95-3.85 5.95-31.75ZM29-21.55L29-21.55 20.5-21.55Q20-21.55 20-21.05L20-21.05 20-3.45Q20-2.95 20.5-2.95L20.5-2.95 29-2.95Q29.45-2.95 29.45-3.45L29.45-3.45 29.45-21.05Q29.45-21.55 29-21.55ZM16.05-5.2L16.05-5.2 16.05-19.3Q16.05-22.4 17.52-23.63 19-24.85 22.25-24.85L22.25-24.85 27.25-24.85Q30.55-24.85 32-23.63 33.45-22.4 33.45-19.3L33.45-19.3 33.45-5.2Q33.45-2.15 32-0.9 30.55 0.35 27.25 0.35L27.25 0.35 22.25 0.35Q19 0.35 17.52-0.9 16.05-2.15 16.05-5.2ZM49.75 0.2L49.75 0.2 38.65 0 38.65-33.75 42.59-33.75 42.59-21.6 42.34-20.25Q42.34-22.6 43.32-23.73 44.3-24.85 46.7-24.85L46.7-24.85 50.09-24.85Q53.05-24.85 54.34-23.75 55.65-22.65 55.65-19.75L55.65-19.75 55.65-5.1Q55.65-2.1 54.3-0.93 52.95 0.25 49.75 0.2ZM42.59-21.15L42.59-21.15 42.59-2.65 42.15-3.15 51.25-3.05Q51.7-3.05 51.7-3.55L51.7-3.55 51.7-21.15Q51.7-21.6 51.25-21.6L51.25-21.6 43.09-21.6Q42.59-21.6 42.59-21.15Z" fill="#000000" data-fill-palette-color="primary"></path><path d="M87.1-17.9L86.35-17.1 86.35-31.75 90.4-31.75 90.4 0 86.35 0 86.35-15.05 87.1-14.35 72.1-14.35 72.85-15.05 72.85 0 68.8 0 68.8-31.75 72.85-31.75 72.85-17.1 72.1-17.9 87.1-17.9ZM105.45 0.35L105.45 0.35 102 0.35Q99.1 0.35 97.77-0.78 96.45-1.9 96.45-4.75L96.45-4.75 96.45-24.5 100.4-24.5 100.4-3.35Q100.4-2.9 100.85-2.9L100.85-2.9 109.55-2.9 109.5-24.5 113.45-24.5 113.45 0 110 0 109.55-2.9 109.85-4.25Q109.85-1.9 108.85-0.78 107.85 0.35 105.45 0.35ZM127.14-24.85L127.14-24.85 130.59-24.85Q133.49-24.85 134.79-23.75 136.09-22.65 136.09-19.75L136.09-19.75 136.09 0 132.14 0 132.14-21.15Q132.14-21.6 131.69-21.6L131.69-21.6 123.54-21.6Q123.04-21.6 123.04-21.15L123.04-21.15 123.09 0 119.14 0 119.14-24.5 122.59-24.5 123.04-21.6 122.59-20.25Q122.59-22.6 123.67-23.73 124.74-24.85 127.14-24.85ZM146.14-24.5L152.44-24.5 152.44-21.4 146.14-21.4 146.64-21.9 146.64-3.75Q146.64-3.3 147.09-3.3L147.09-3.3 152.44-3.3 152.44 0 148.94 0Q145.64 0 144.17-1.25 142.69-2.5 142.69-5.55L142.69-5.55 142.69-21.9 143.19-21.4 139.69-21.4 139.69-24.5 143.19-24.5 142.69-24 142.69-30.75 146.64-30.75 146.64-24 146.14-24.5Z" fill="#000000" data-fill-palette-color="primary"></path><path d="M180.04-31.75L187.84 0 183.74 0 181.59-8.8 182.19-8.3 168.14-8.3 168.79-8.8 166.44 0 162.59 0 170.19-27.1Q170.69-29.05 171.26-30.05 171.84-31.05 172.84-31.45 173.84-31.85 175.74-31.85L175.74-31.85 180.04-31.75ZM173.89-27.75L173.89-27.75 169.44-11.35 169.04-11.85 181.44-11.85 181.04-11.35 176.99-28.25 174.44-28.25Q174.19-28.25 174.09-28.13 173.99-28 173.89-27.75ZM196.69-31.75L196.69 0 192.64 0 192.64-31.75 196.69-31.75Z" fill="#000000" data-fill-palette-color="primary"></path></g></svg></g></svg></g></svg></g></svg></g><g transform="matrix(1,0,0,1,427.5684326284046,0)"><svg viewBox="0 0 162.59244224939795 162.59244224939795" height="162.59244224939795" width="162.59244224939795"><g><svg></svg></g><g id="icon-0"><svg viewBox="0 0 162.59244224939795 162.59244224939795" height="162.59244224939795" width="162.59244224939795"><g><path d="M0 81.296c0-44.899 36.398-81.296 81.296-81.296 44.899 0 81.296 36.398 81.296 81.296 0 44.899-36.398 81.296-81.296 81.296-44.899 0-81.296-36.398-81.296-81.296zM81.296 156.471c41.518 0 75.175-33.657 75.175-75.175 0-41.518-33.657-75.175-75.175-75.175-41.518 0-75.175 33.657-75.175 75.175 0 41.518 33.657 75.175 75.175 75.175z" data-fill-palette-color="accent" fill="#000000" stroke="transparent"></path></g><g transform="matrix(1,0,0,1,34.42223726666762,36.811564228355934)"><svg viewBox="0 0 93.7479677160627 88.96931379268608" height="88.96931379268608" width="93.7479677160627"><g><svg xmlns:x="http://ns.adobe.com/Extensibility/1.0/" xmlns:i="http://ns.adobe.com/AdobeIllustrator/10.0/" xmlns:graph="http://ns.adobe.com/Graphs/1.0/" xmlns="http://www.w3.org/2000/svg" xmlns:xlink="http://www.w3.org/1999/xlink" xmlns:a="http://ns.adobe.com/AdobeSVGViewerExtensions/3.0/" version="1.1" baseProfile="basic" x="0" y="0" viewBox="5 7 90.28198073584072 85.68" xml:space="preserve" height="88.96931379268608" width="93.7479677160627" class="icon-dxe-0" data-fill-palette-color="accent" id="dxe-0"><g fill="#000000" data-fill-palette-color="accent"><g fill="#000000" data-fill-palette-color="accent"><path fill-rule="evenodd" clip-rule="evenodd" d="M27.8 7H28.04C31.822 15.218 36.264 22.776 40.04 31 46.421 30.5 53.87 31.07 60.2 30.52A643 643 0 0 0 71.96 7H72.2C79.437 24.172 94.062 40.197 95.24 63.16 95.481 67.856 94.653 71.424 93.56 75.4 89.545 75.706 84.299 74.779 81.08 75.879 82.115 77.175 84.504 76.6 86.601 76.6H92.84C92.002 78.961 90.66 80.82 89 82.36 85.961 82.152 82.694 79.769 80.12 80.679 81.979 82.34 85.397 82.443 88.04 83.32 86.446 84.766 84.598 85.958 82.52 86.92 80.596 86.284 79.576 84.744 77.48 84.28 76.931 86.148 79.874 86.279 80.839 87.4 72.512 91.793 61.631 88.831 56.839 82.36 56.045 81.287 55.809 79.996 55.4 79 52.964 82.593 49.754 85.279 45.08 87.641 38.84 90.792 33.388 91.986 26.12 88.84 28.321 86.881 31.614 86.015 33.56 83.8 30.631 83.362 27.39 87.298 24.2 88.361 21.435 87.206 18.755 85.966 16.28 84.521 20.449 82.29 26.744 82.184 30.68 79.72 29.948 78.604 28.24 79.64 27.08 79.96 23.519 80.942 18.821 82.314 15.08 83.32 12.034 81.566 10.008 78.792 8.12 75.88 14.316 75.008 23.058 76.429 29.24 75.16 28.647 73.854 25.918 74.44 24.2 74.44H7.4C6.246 71.994 5.615 69.025 5 66.04V59.08C8.612 37.732 20.173 24.333 27.8 7M15.08 35.32C20.519 31.959 27.837 30.477 36.44 30.28 33.682 23.038 30.757 15.962 27.32 9.4 23.27 18.07 18.997 26.517 15.08 35.32M63.08 30.28C71.793 30.287 79.655 32.425 84.68 35.32 80.197 26.924 76.505 17.736 71.96 9.4 68.947 16.149 65.377 23.614 63.08 30.28M32.36 61.96C37.111 61.819 36.463 45.366 31.64 46.84 27.843 48.001 28.048 62.088 32.36 61.96M72.92 59.8C77.716 59.59 76.96 45.113 71.96 46.84 68.407 48.067 68.26 60.004 72.92 59.8M55.64 78.04C58.326 72.725 61.537 67.936 64.281 62.68 58.6 62.84 52.281 62.361 47.001 62.92 50.132 67.708 52.521 73.24 55.64 78.04" fill="#000000" data-fill-palette-color="accent"></path><path fill-rule="evenodd" clip-rule="evenodd" d="M47 92.68H37.88C43.113 91.371 47.628 89.209 51.561 86.201 52.389 85.567 54.742 83.05 55.161 83.081 55.135 83.079 57.582 85.527 57.801 85.721 61.035 88.58 63.971 90.53 68.121 91.721 61.367 92.327 53.867 92.188 47 92.68" fill="#000000" data-fill-palette-color="accent"></path></g></g></svg></g></svg></g></svg></g></svg></g></svg></g><defs></defs></svg><rect width="395.52" height="108.96785181124972" fill="none" stroke="none" visibility="hidden"></rect></g></svg></g></svg>